<?xml version="1.0" standalone="no"?>
<!DOCTYPE svg PUBLIC "-//W3C//DTD SVG 20010904//EN"
 "http://www.w3.org/TR/2001/REC-SVG-20010904/DTD/svg10.dtd">
<svg version="1.0" xmlns="http://www.w3.org/2000/svg"
 width="800.000000pt" height="800.000000pt" viewBox="0 0 800.000000 800.000000"
 preserveAspectRatio="xMidYMid meet">
<metadata>
Created by potrace 1.14, written by Peter Selinger 2001-2017
</metadata>
<g transform="translate(0.000000,800.000000) scale(0.100000,-0.100000)"
fill="#000000" stroke="none">
<path d="M2980 7989 c-93 -25 -288 -86 -340 -106 -8 -4 -17 -7 -20 -8 -28 -7
-80 -30 -80 -36 0 -3 -14 -9 -31 -13 -77 -15 -556 -249 -567 -277 -2 -4 -19
-13 -38 -19 -19 -6 -34 -16 -34 -21 0 -5 -7 -9 -15 -9 -8 0 -15 -5 -15 -12 0
-6 -3 -9 -6 -5 -5 5 -27 -10 -59 -40 -7 -7 -15 -9 -19 -6 -3 3 -8 -2 -12 -11
-3 -9 -10 -14 -14 -11 -5 3 -20 -5 -35 -19 -14 -13 -41 -34 -60 -47 -19 -13
-35 -27 -35 -31 0 -5 -7 -8 -15 -8 -8 0 -15 -4 -15 -9 0 -5 -9 -13 -20 -16
-11 -3 -26 -12 -33 -20 -23 -23 -136 -115 -141 -115 -3 0 -28 -23 -57 -51 -28
-27 -63 -57 -76 -66 -14 -9 -22 -22 -19 -30 3 -8 1 -11 -4 -8 -11 7 -180 -157
-180 -175 0 -5 -7 -10 -15 -10 -7 0 -18 -6 -22 -14 -10 -17 -88 -109 -126
-149 -15 -16 -27 -30 -27 -32 0 -2 -11 -17 -25 -32 -44 -48 -105 -127 -105
-136 0 -4 -9 -18 -20 -30 -29 -31 -83 -107 -99 -139 -8 -16 -18 -28 -23 -28
-4 0 -8 -5 -8 -10 0 -6 -9 -24 -20 -40 -11 -17 -29 -44 -41 -61 -11 -17 -18
-33 -15 -36 3 -4 -3 -13 -14 -20 -11 -8 -18 -19 -15 -24 4 -5 2 -9 -2 -9 -11
0 -47 -60 -40 -67 3 -3 -3 -15 -14 -26 -18 -19 -149 -276 -153 -301 -1 -6 -11
-29 -23 -51 -11 -22 -33 -74 -47 -115 -15 -41 -36 -94 -46 -117 -11 -24 -20
-50 -20 -59 0 -9 -6 -30 -14 -47 -22 -49 -66 -199 -60 -208 2 -4 0 -10 -5 -13
-5 -4 -17 -37 -25 -76 -13 -57 -16 -146 -16 -531 l0 -462 28 -23 c15 -14 39
-30 55 -37 15 -6 27 -16 27 -22 0 -5 4 -4 9 4 6 8 14 10 22 5 8 -5 23 -10 33
-11 11 -2 25 -8 33 -14 7 -6 20 -9 28 -5 8 3 15 2 15 -3 0 -6 121 -42 195 -57
11 -2 31 -6 45 -9 14 -3 39 -7 55 -10 17 -2 46 -9 65 -14 44 -14 63 -14 55 -1
-3 6 1 7 9 4 9 -3 16 -10 16 -16 0 -5 4 -6 10 -3 5 3 27 2 47 -4 21 -5 61 -12
88 -15 28 -3 61 -7 75 -10 14 -2 46 -7 72 -10 26 -4 80 -11 120 -16 100 -14
129 -17 233 -25 50 -4 92 -8 95 -10 3 -1 43 -6 90 -10 47 -3 114 -10 150 -14
36 -5 95 -8 133 -7 37 0 67 -2 67 -5 0 -3 26 -7 58 -8 31 -1 77 -4 102 -6 42
-3 173 -11 320 -20 36 -3 137 -7 225 -10 88 -4 176 -8 195 -9 19 -2 41 2 49 8
11 8 13 8 7 -1 -5 -10 19 -13 111 -15 65 0 124 -1 131 -1 8 1 12 -20 13 -66 1
-36 0 -70 -1 -76 -1 -5 -3 -16 -3 -22 0 -7 -5 -13 -10 -13 -6 0 -7 -3 -4 -7 4
-3 3 -11 -2 -17 -5 -6 -11 -27 -14 -46 -7 -43 -44 -146 -80 -222 -14 -30 -36
-81 -48 -114 -12 -32 -27 -66 -34 -74 -8 -8 -35 -56 -62 -107 -27 -51 -59
-104 -71 -118 -12 -14 -22 -30 -22 -35 0 -6 -5 -10 -11 -10 -5 0 -8 -4 -5 -9
3 -5 -1 -14 -9 -21 -8 -7 -15 -18 -15 -25 0 -8 -7 -26 -15 -42 -18 -36 -116
-269 -145 -348 -12 -33 -24 -82 -26 -110 -3 -30 -14 -64 -29 -87 -14 -21 -25
-41 -25 -44 0 -4 -7 -15 -16 -25 -8 -9 -17 -23 -18 -31 -1 -7 -10 -31 -20 -53
-9 -21 -19 -48 -21 -60 -2 -11 -4 -20 -5 -20 -1 0 -3 -7 -5 -16 -1 -9 -10 -41
-18 -70 -22 -74 -28 -105 -32 -169 -3 -31 -12 -78 -20 -105 -23 -75 -64 -278
-71 -348 -10 -112 -2 -306 14 -332 3 -5 7 -35 9 -65 1 -30 6 -66 9 -80 4 -14
8 -29 10 -35 7 -31 65 -144 86 -170 13 -16 30 -45 37 -62 8 -18 18 -33 23 -33
5 0 6 -5 3 -10 -3 -6 -2 -10 4 -10 6 0 26 -16 45 -35 20 -19 33 -35 30 -35 -2
0 1 -10 8 -22 7 -13 11 -27 10 -31 -1 -5 1 -6 5 -4 13 8 33 -18 33 -44 0 -5 4
-8 9 -5 5 3 12 -1 15 -10 4 -10 2 -13 -7 -8 -8 5 -8 2 2 -9 7 -9 18 -14 25
-10 6 3 8 3 4 -1 -4 -5 4 -19 17 -32 l24 -24 1366 0 c903 0 1365 3 1365 10 0
6 7 10 15 10 8 0 14 4 13 9 -2 5 6 17 17 26 11 9 13 14 5 10 -8 -4 -5 2 8 13
12 11 22 25 22 31 0 5 7 14 16 19 9 5 15 12 15 16 -2 9 28 66 35 66 3 0 2 -5
-2 -12 -4 -7 -3 -8 5 -4 6 4 9 12 5 17 -6 11 40 59 57 59 6 0 7 4 4 10 -3 5
-2 10 3 10 6 0 17 17 25 38 8 21 23 44 32 52 9 8 35 53 57 100 37 79 48 123
52 210 0 19 5 41 10 49 5 8 11 62 12 120 2 58 4 108 5 111 4 14 -12 184 -18
193 -3 4 -7 22 -10 39 -4 26 -22 110 -38 182 -2 10 -9 34 -15 52 -6 18 -13 54
-15 81 -4 62 -12 105 -32 173 -8 30 -16 62 -18 70 -2 8 -10 33 -18 55 -8 22
-20 56 -27 75 -8 19 -18 38 -24 42 -6 4 -8 8 -3 8 4 0 -8 24 -27 53 -25 36
-37 67 -40 102 -5 57 -42 160 -110 315 -26 57 -48 112 -50 122 -1 10 -8 24
-14 30 -7 7 -12 18 -12 26 0 7 -7 20 -15 29 -8 8 -13 19 -10 24 4 5 1 9 -4 9
-6 0 -11 5 -11 11 0 7 -11 22 -25 35 -14 13 -24 25 -23 26 1 2 -22 47 -52 102
-68 121 -92 168 -94 181 -5 25 -19 61 -29 74 -12 14 -18 29 -57 136 -12 33
-24 67 -27 75 -3 8 -8 26 -10 40 -2 14 -10 42 -18 63 -17 42 -20 183 -5 192 6
3 10 1 10 -6 0 -8 4 -8 15 1 11 9 15 9 15 1 0 -7 4 -10 10 -6 9 5 244 15 445
19 50 1 96 5 103 9 7 5 12 4 12 -3 0 -6 5 -8 10 -5 6 4 45 8 88 10 42 2 118 7
167 11 50 3 115 7 145 9 73 4 277 17 315 20 59 5 171 16 210 21 22 2 63 6 90
8 28 3 73 7 100 10 28 3 79 8 115 11 36 3 76 7 90 9 42 8 103 17 135 21 103
13 133 17 160 21 17 3 39 7 50 9 11 1 34 5 50 8 17 3 50 8 75 11 25 3 56 9 70
12 14 3 43 8 65 11 22 3 43 11 47 17 5 7 8 6 8 -3 0 -9 4 -10 13 -3 6 5 39 15
72 22 57 12 196 52 241 70 14 5 26 4 33 -3 8 -8 11 -8 11 2 0 7 4 10 9 7 5 -3
12 1 15 10 4 9 9 14 12 11 3 -3 19 6 35 21 l30 26 -3 496 c-2 298 -7 501 -13
510 -5 8 -11 24 -12 35 -2 11 -6 27 -10 35 -3 8 -7 17 -7 20 -18 71 -41 140
-48 140 -5 0 -7 4 -4 9 6 10 -45 168 -68 211 -7 14 -16 38 -20 53 -4 15 -10
26 -14 23 -4 -2 -8 6 -8 19 -1 13 -10 43 -20 66 -37 85 -134 283 -144 293 -5
5 -10 16 -10 24 0 7 -11 30 -25 50 -14 20 -25 42 -25 49 0 7 -4 13 -9 13 -5 0
-16 17 -24 38 -9 21 -26 52 -39 68 -13 16 -30 43 -38 59 -17 34 -130 197 -143
206 -5 3 -7 8 -5 10 3 4 -10 21 -44 60 -10 10 -18 24 -18 29 0 6 -4 10 -8 10
-4 0 -15 12 -24 28 -9 15 -25 36 -35 47 -10 11 -27 32 -38 46 -80 102 -383
414 -475 489 -24 19 -51 42 -59 50 -9 9 -34 29 -56 45 -22 16 -49 38 -60 47
-10 10 -25 16 -33 13 -7 -2 -11 -1 -7 4 5 9 -2 18 -39 48 -34 29 -268 182
-286 188 -11 4 -20 11 -20 16 0 5 -5 9 -10 9 -6 0 -35 16 -65 36 -31 21 -59
33 -66 28 -7 -4 -10 -3 -6 3 3 5 -17 21 -46 34 -29 13 -54 26 -57 29 -15 15
-326 159 -358 166 -7 1 -33 12 -58 23 -24 12 -47 21 -51 21 -5 0 -50 16 -102
35 -51 19 -97 33 -101 30 -5 -3 -11 -1 -15 5 -3 5 -17 10 -30 10 -13 0 -26 4
-29 9 -3 4 -25 12 -48 16 -24 4 -50 10 -58 14 -26 10 -1993 10 -2030 0z"/>
</g>
</svg>
